<svg id="svg" version="1.1" width="400" height="220.96505823627288" viewBox="0 0 400 220.96505823627288" xmlns="http://www.w3.org/2000/svg" xmlns:xlink="http://www.w3.org/1999/xlink" ><g id="svgg"><path id="path0" d="M0.884 28.619 L 0.884 57.238 9.613 57.238 L 18.343 57.238 18.359 37.514 L 18.375 17.790 19.359 21.534 C 19.900 23.593,22.185 31.996,24.438 40.208 C 26.690 48.420,28.655 55.586,28.804 56.133 L 29.075 57.127 35.945 57.185 L 42.814 57.244 43.064 56.301 C 43.202 55.783,45.312 48.199,47.754 39.448 C 50.197 30.696,52.636 21.845,53.175 19.779 C 53.715 17.713,54.093 16.320,54.016 16.685 C 53.939 17.050,53.828 26.324,53.768 37.295 L 53.660 57.243 62.466 57.185 L 71.271 57.127 71.327 28.564 L 71.383 0.000 58.122 0.000 C 50.829 0.000,44.862 0.056,44.862 0.123 C 44.862 0.191,43.373 5.885,41.554 12.775 C 38.085 25.912,37.420 28.702,36.591 33.591 L 36.085 36.575 35.812 34.917 C 35.144 30.861,34.018 26.189,30.662 13.538 L 27.072 0.003 13.978 0.002 L 0.884 0.000 0.884 28.619 M95.891 0.608 C 95.764 0.942,91.409 12.354,86.214 25.967 C 76.255 52.059,74.465 56.801,74.471 57.074 C 74.473 57.167,78.921 57.216,84.354 57.185 L 94.232 57.127 95.182 54.033 C 95.704 52.331,96.252 50.517,96.399 50.000 L 96.666 49.061 106.420 49.061 L 116.174 49.061 117.072 51.878 C 117.566 53.428,118.132 55.268,118.329 55.967 L 118.686 57.238 128.514 57.238 C 136.719 57.238,138.343 57.187,138.343 56.933 C 138.343 56.489,129.818 33.472,117.605 0.939 L 117.253 0.000 106.687 0.000 L 96.122 0.000 95.891 0.608 M141.657 28.616 L 141.657 57.268 158.066 57.176 C 169.549 57.113,174.962 57.004,176.098 56.816 C 189.698 54.556,196.794 44.774,196.794 28.287 C 196.794 16.608,193.510 9.037,186.385 4.289 C 180.822 0.582,178.117 0.188,157.403 0.061 L 141.657 -0.036 141.657 28.616 M202.652 28.620 L 202.652 57.240 226.575 57.183 L 250.497 57.127 250.556 50.663 L 250.614 44.199 235.804 44.199 L 220.994 44.199 220.994 38.895 L 220.994 33.591 233.702 33.591 L 246.409 33.591 246.409 27.182 L 246.409 20.773 233.702 20.773 L 220.994 20.773 220.994 16.796 L 220.994 12.818 234.586 12.818 L 248.177 12.818 248.177 6.409 L 248.177 0.000 225.414 0.000 L 202.652 0.000 202.652 28.620 M279.833 28.564 L 279.890 57.127 289.227 57.185 L 298.564 57.242 298.564 28.621 L 298.564 0.000 289.170 -0.000 L 279.777 -0.000 279.833 28.564 M306.077 28.619 L 306.077 57.238 314.720 57.238 L 323.362 57.238 323.235 41.492 C 323.165 32.831,323.044 25.298,322.966 24.751 C 322.850 23.930,323.227 24.545,325.133 28.287 C 326.403 30.779,329.282 35.950,331.532 39.779 C 333.781 43.608,336.378 48.033,337.302 49.613 C 338.225 51.193,339.127 52.636,339.306 52.818 C 339.484 53.001,340.049 53.945,340.560 54.918 C 341.072 55.890,341.590 56.809,341.712 56.961 C 341.882 57.175,344.159 57.238,351.740 57.238 L 361.547 57.238 361.547 28.619 L 361.547 0.000 352.928 0.000 L 344.309 0.000 344.310 11.768 C 344.310 22.130,344.551 31.717,344.853 33.370 C 344.908 33.674,344.518 33.028,343.986 31.934 C 343.454 30.840,342.932 29.845,342.826 29.724 C 342.719 29.602,341.725 27.748,340.616 25.603 C 339.507 23.459,335.695 16.821,332.144 10.852 L 325.688 -0.000 315.883 -0.000 L 306.077 0.000 306.077 28.619 M170.449 14.021 C 176.923 15.752,180.259 25.504,177.561 34.814 C 175.594 41.600,172.633 43.524,164.144 43.532 L 160.000 43.536 160.000 28.474 L 160.000 13.413 164.586 13.546 C 167.632 13.635,169.600 13.794,170.449 14.021 M108.627 24.199 C 109.683 27.724,110.624 30.707,110.719 30.829 C 110.918 31.082,112.265 35.390,112.265 35.770 C 112.265 35.952,110.664 36.022,106.494 36.022 C 100.759 36.022,100.723 36.019,100.842 35.563 C 101.543 32.883,106.440 17.513,106.555 17.632 C 106.639 17.719,107.572 20.674,108.627 24.199 M301.361 82.818 C 301.243 83.011,294.024 101.880,292.885 104.972 C 290.717 110.858,282.328 132.722,282.201 132.818 C 282.120 132.878,281.502 134.370,280.829 136.133 C 280.155 137.895,278.289 142.768,276.682 146.961 C 275.076 151.155,273.675 154.809,273.571 155.083 L 273.381 155.580 293.368 155.580 L 313.355 155.580 315.517 148.899 C 323.484 124.279,325.665 117.705,325.890 117.631 C 326.037 117.582,326.335 118.135,326.595 118.939 C 328.726 125.526,337.198 151.733,337.743 153.425 L 338.437 155.580 357.863 155.580 C 376.259 155.580,377.283 155.560,377.179 155.193 C 377.119 154.981,372.943 143.768,367.901 130.276 C 362.858 116.785,356.808 100.550,354.456 94.199 L 350.179 82.652 325.821 82.652 C 312.424 82.652,301.417 82.727,301.361 82.818 M272.962 156.718 C 271.476 160.711,268.884 167.521,260.404 189.708 C 254.880 204.163,250.304 216.270,250.235 216.614 L 250.110 217.238 271.752 217.238 L 293.393 217.238 299.326 198.950 C 302.589 188.892,305.303 180.410,305.355 180.100 C 305.443 179.585,304.838 179.087,298.236 174.244 C 294.267 171.332,290.141 168.304,289.067 167.514 C 274.225 156.600,273.249 155.946,272.962 156.718 M371.442 161.255 C 363.410 167.102,356.731 171.983,355.018 173.259 C 354.283 173.806,352.023 175.448,349.995 176.906 C 347.967 178.365,346.342 179.657,346.384 179.779 C 346.426 179.901,349.063 188.006,352.243 197.790 C 355.424 207.575,358.152 215.928,358.304 216.354 L 358.582 217.127 379.291 217.183 C 399.679 217.239,400.000 217.233,400.000 216.810 C 400.000 216.573,395.438 204.167,389.863 189.240 C 384.288 174.313,379.285 160.874,378.745 159.377 L 377.764 156.654 371.442 161.255 M313.563 203.370 C 306.827 208.262,299.792 213.359,297.931 214.696 L 294.548 217.127 310.257 217.184 C 318.898 217.215,333.023 217.215,341.648 217.184 L 357.329 217.127 346.455 209.235 C 330.335 197.537,326.092 194.485,325.944 194.480 C 325.871 194.477,320.300 198.478,313.563 203.370 " stroke="none" fill="#242d4c" fill-rule="evenodd"></path><path id="path1" d="M321.114 132.655 C 318.506 140.706,315.753 149.182,314.997 151.492 L 313.623 155.691 293.386 155.691 C 282.256 155.691,273.149 155.765,273.149 155.856 C 273.149 155.948,273.250 156.022,273.374 156.022 C 273.498 156.022,277.799 159.072,282.932 162.800 C 288.065 166.528,295.149 171.664,298.674 174.214 C 302.199 176.764,305.257 179.012,305.470 179.210 C 305.851 179.565,294.212 216.373,293.490 217.095 C 293.192 217.394,293.193 217.901,293.492 217.901 C 293.620 217.901,294.042 217.567,294.431 217.158 C 294.820 216.750,296.829 215.191,298.895 213.693 C 305.837 208.663,324.523 195.070,325.223 194.543 L 325.915 194.020 341.466 205.326 C 350.019 211.544,357.302 216.917,357.651 217.266 C 357.999 217.615,358.372 217.901,358.479 217.901 C 358.755 217.901,358.722 217.290,358.441 217.197 C 358.229 217.126,346.076 180.077,346.094 179.558 C 346.098 179.436,349.005 177.239,352.554 174.675 C 356.102 172.111,362.983 167.126,367.845 163.596 C 372.707 160.067,377.129 156.931,377.671 156.627 C 378.213 156.324,378.685 155.989,378.720 155.883 C 378.757 155.775,369.927 155.691,358.541 155.691 L 338.297 155.691 336.571 150.387 C 334.499 144.020,330.449 131.533,327.917 123.704 C 326.905 120.575,326.028 118.015,325.967 118.016 C 325.906 118.016,323.722 124.604,321.114 132.655 " stroke="none" fill="#fbfbfb" fill-rule="evenodd"></path><path id="path2" d="M187.182 78.455 C 154.472 80.723,134.807 97.649,134.807 123.536 C 134.807 146.078,148.222 158.241,179.779 164.306 C 183.304 164.984,186.347 165.626,186.541 165.733 C 186.735 165.841,189.222 166.386,192.066 166.944 C 208.201 170.112,211.388 171.469,213.052 175.876 C 217.162 186.762,195.517 191.817,174.608 184.855 C 166.555 182.174,162.172 179.026,158.041 172.956 C 157.161 171.665,156.303 170.608,156.133 170.608 C 155.753 170.608,123.712 191.184,123.608 191.495 C 123.525 191.747,127.182 196.097,129.714 198.758 C 141.123 210.746,156.709 217.913,176.354 220.204 C 221.422 225.461,252.563 208.851,255.462 178.011 C 256.655 165.321,253.097 154.078,245.652 147.006 C 237.183 138.961,225.898 134.839,199.558 130.168 C 181.273 126.926,177.563 125.012,177.948 119.017 C 178.335 112.995,185.901 110.207,198.706 111.371 C 212.050 112.583,221.517 116.655,226.744 123.431 C 227.804 124.804,227.937 124.847,228.802 124.103 C 229.146 123.807,229.812 123.251,230.283 122.867 C 230.754 122.484,231.334 122.005,231.573 121.803 C 231.812 121.601,232.190 121.287,232.415 121.105 C 233.833 119.952,236.621 117.626,236.918 117.348 C 237.294 116.997,237.627 116.719,239.561 115.148 C 240.228 114.607,240.930 114.010,241.122 113.822 C 241.313 113.634,241.905 113.133,242.437 112.707 C 243.621 111.760,244.832 110.729,245.323 110.249 C 245.525 110.052,247.740 108.179,250.246 106.087 C 253.962 102.984,254.766 102.215,254.605 101.915 C 254.232 101.220,247.624 94.903,245.746 93.447 C 231.777 82.613,209.492 76.908,187.182 78.455 M0.003 125.580 C 0.008 178.225,0.040 178.879,3.103 188.124 C 9.404 207.141,28.946 219.095,56.186 220.597 C 86.563 222.271,111.437 208.505,118.956 185.856 C 122.565 174.985,122.647 173.579,122.650 122.486 L 122.652 82.652 100.999 82.652 L 79.345 82.652 79.282 127.901 L 79.218 173.149 78.716 175.022 C 76.766 182.308,71.406 186.558,63.101 187.403 C 53.533 188.376,45.579 183.482,43.528 175.359 C 42.706 172.101,42.659 169.436,42.655 125.580 L 42.652 82.652 21.326 82.652 L 0.000 82.652 0.003 125.580 " stroke="none" fill="#d4242c" fill-rule="evenodd"></path><path id="path3" d="M325.631 117.845 C 325.088 119.327,324.656 120.752,324.728 120.824 C 324.777 120.872,325.040 120.235,325.314 119.406 C 325.588 118.578,325.921 117.827,326.055 117.738 C 326.222 117.627,326.210 117.575,326.015 117.572 C 325.859 117.571,325.686 117.693,325.631 117.845 M323.560 124.002 C 323.160 125.223,322.872 126.260,322.919 126.308 C 322.966 126.355,323.332 125.395,323.732 124.174 C 324.132 122.954,324.421 121.916,324.374 121.869 C 324.327 121.822,323.961 122.782,323.560 124.002 M321.130 131.517 C 320.607 133.101,320.218 134.435,320.265 134.482 C 320.312 134.529,320.778 133.271,321.301 131.687 C 321.823 130.103,322.213 128.769,322.166 128.722 C 322.119 128.675,321.653 129.933,321.130 131.517 M318.367 140.024 C 318.028 141.063,317.790 141.952,317.838 142.000 C 317.885 142.047,318.201 141.236,318.540 140.197 C 318.878 139.158,319.116 138.269,319.068 138.221 C 319.021 138.174,318.705 138.985,318.367 140.024 M313.370 155.322 C 313.370 155.516,308.443 155.593,293.425 155.634 L 273.481 155.688 293.358 155.746 C 312.198 155.800,314.057 155.752,313.521 155.215 C 313.438 155.132,313.370 155.180,313.370 155.322 M348.011 155.746 C 353.390 155.779,362.191 155.779,367.569 155.746 C 372.948 155.713,368.547 155.686,357.790 155.686 C 347.033 155.686,342.633 155.713,348.011 155.746 M274.033 156.544 C 274.033 156.605,274.331 156.867,274.696 157.127 C 275.061 157.387,275.359 157.549,275.359 157.489 C 275.359 157.428,275.061 157.166,274.696 156.906 C 274.331 156.646,274.033 156.484,274.033 156.544 M361.878 168.086 L 361.215 168.655 361.934 168.180 C 362.329 167.919,362.652 167.662,362.652 167.609 C 362.652 167.444,362.558 167.501,361.878 168.086 M290.915 168.801 C 290.987 168.917,294.273 171.370,298.218 174.253 C 302.163 177.135,305.436 179.634,305.491 179.806 C 305.551 179.996,305.577 179.969,305.556 179.736 C 305.537 179.525,304.472 178.590,303.189 177.658 C 301.905 176.726,298.589 174.304,295.820 172.277 C 293.051 170.249,290.844 168.685,290.915 168.801 M359.669 169.631 C 358.939 170.181,358.243 170.741,358.122 170.876 C 357.848 171.178,359.648 169.922,360.552 169.179 C 361.660 168.269,361.079 168.566,359.669 169.631 M357.017 171.622 L 356.354 172.191 357.072 171.716 C 357.467 171.455,357.790 171.198,357.790 171.145 C 357.790 170.980,357.696 171.037,357.017 171.622 M352.388 174.929 C 350.329 176.441,348.538 177.793,348.410 177.934 C 348.177 178.190,348.851 177.720,353.527 174.363 C 355.601 172.873,356.543 172.100,356.201 172.168 C 356.163 172.176,354.448 173.418,352.388 174.929 M347.098 178.783 C 345.961 179.644,346.002 179.579,346.289 180.039 C 346.514 180.399,346.526 180.389,346.404 179.945 C 346.330 179.671,346.350 179.445,346.449 179.442 C 346.642 179.435,348.252 178.133,348.066 178.134 C 348.006 178.134,347.570 178.426,347.098 178.783 M346.757 181.333 C 346.748 181.459,347.131 182.702,347.607 184.096 C 348.084 185.489,348.482 186.527,348.491 186.401 C 348.501 186.276,348.118 185.033,347.641 183.639 C 347.164 182.245,346.766 181.208,346.757 181.333 M349.409 189.508 C 349.400 189.632,349.981 191.472,350.701 193.596 C 351.421 195.720,352.018 197.357,352.027 197.233 C 352.037 197.109,351.455 195.269,350.735 193.144 C 350.015 191.020,349.419 189.383,349.409 189.508 M325.614 194.509 C 325.516 194.668,325.554 194.704,325.713 194.606 C 325.854 194.519,326.292 194.661,326.687 194.921 L 327.403 195.396 326.740 194.826 C 325.997 194.187,325.841 194.143,325.614 194.509 M322.983 196.373 L 322.320 196.943 323.039 196.467 C 323.434 196.206,323.757 195.949,323.757 195.897 C 323.757 195.731,323.663 195.789,322.983 196.373 M329.945 197.207 C 329.945 197.268,330.243 197.530,330.608 197.790 C 330.972 198.050,331.271 198.212,331.271 198.152 C 331.271 198.091,330.972 197.829,330.608 197.569 C 330.243 197.309,329.945 197.147,329.945 197.207 M352.724 199.674 C 352.715 199.798,353.246 201.489,353.906 203.431 C 354.565 205.373,355.112 206.860,355.121 206.735 C 355.130 206.611,354.599 204.920,353.940 202.978 C 353.281 201.036,352.734 199.549,352.724 199.674 M313.260 203.445 L 312.597 204.014 313.315 203.539 C 313.710 203.278,314.033 203.021,314.033 202.968 C 314.033 202.803,313.940 202.861,313.260 203.445 M310.829 205.213 L 310.166 205.782 310.884 205.307 C 311.279 205.046,311.602 204.789,311.602 204.736 C 311.602 204.571,311.509 204.629,310.829 205.213 M308.398 206.981 L 307.735 207.550 308.453 207.075 C 308.848 206.814,309.171 206.557,309.171 206.504 C 309.171 206.339,309.078 206.397,308.398 206.981 M355.597 208.514 C 355.588 208.638,356.119 210.329,356.779 212.270 C 357.438 214.212,357.985 215.699,357.994 215.575 C 358.003 215.450,357.472 213.760,356.813 211.818 C 356.153 209.876,355.607 208.389,355.597 208.514 M301.989 211.622 L 301.326 212.191 302.044 211.716 C 302.439 211.455,302.762 211.198,302.762 211.145 C 302.762 210.980,302.669 211.037,301.989 211.622 " stroke="none" fill="#52629b" fill-rule="evenodd"></path><path id="path4" d="M324.666 121.127 C 324.531 121.516,324.427 121.943,324.435 122.077 C 324.444 122.211,324.594 121.931,324.768 121.456 C 324.942 120.980,325.046 120.552,324.999 120.505 C 324.952 120.458,324.802 120.738,324.666 121.127 M319.242 137.806 C 319.161 138.130,319.137 138.437,319.189 138.489 C 319.241 138.541,319.350 138.319,319.432 137.995 C 319.513 137.671,319.537 137.364,319.485 137.312 C 319.433 137.260,319.324 137.482,319.242 137.806 M316.155 147.315 C 315.941 147.993,315.806 148.587,315.855 148.636 C 315.903 148.684,316.118 148.169,316.331 147.492 C 316.545 146.814,316.680 146.220,316.632 146.171 C 316.583 146.122,316.368 146.637,316.155 147.315 M325.193 194.605 L 324.530 195.175 325.249 194.699 C 325.644 194.438,325.967 194.181,325.967 194.129 C 325.967 193.963,325.873 194.021,325.193 194.605 M320.331 198.141 L 319.669 198.711 320.387 198.235 C 320.782 197.974,321.105 197.717,321.105 197.665 C 321.105 197.499,321.011 197.557,320.331 198.141 M317.901 199.909 L 317.238 200.479 317.956 200.003 C 318.351 199.742,318.674 199.485,318.674 199.432 C 318.674 199.267,318.580 199.325,317.901 199.909 M315.470 201.677 L 314.807 202.246 315.525 201.771 C 315.920 201.510,316.243 201.253,316.243 201.200 C 316.243 201.035,316.150 201.093,315.470 201.677 M313.923 202.782 L 313.260 203.351 313.978 202.876 C 314.373 202.615,314.696 202.358,314.696 202.305 C 314.696 202.140,314.603 202.198,313.923 202.782 " stroke="none" fill="#8080b0" fill-rule="evenodd"></path></g></svg>