<svg id="svg" version="1.1" width="400" height="400" viewBox="0 0 400 400" xmlns="http://www.w3.org/2000/svg" xmlns:xlink="http://www.w3.org/1999/xlink" ><g id="svgg"><path id="path0" d="M96.850 132.750 L 96.911 162.300 97.351 163.946 C 100.180 174.512,108.004 179.841,120.700 179.852 C 132.937 179.861,140.622 174.791,143.462 164.835 L 143.900 163.300 143.954 133.350 L 144.008 103.400 135.304 103.400 L 126.600 103.400 126.600 132.192 L 126.600 160.985 126.172 162.142 C 124.276 167.276,116.805 167.612,115.111 162.641 C 114.835 161.832,114.800 158.407,114.800 132.464 L 114.800 103.200 105.795 103.200 L 96.790 103.200 96.850 132.750 M170.000 103.425 C 159.414 104.651,152.061 111.655,150.984 121.539 C 150.149 129.199,152.037 135.011,156.933 139.861 C 159.623 142.525,161.334 143.730,168.000 147.652 C 176.090 152.412,178.915 155.536,178.888 159.690 C 178.859 164.228,176.727 166.476,172.435 166.492 C 167.792 166.511,166.000 163.892,166.000 157.090 L 166.000 154.000 157.600 154.000 L 149.200 154.000 149.201 156.550 C 149.209 173.443,160.595 182.460,178.071 179.413 C 188.576 177.581,194.298 171.391,194.970 161.132 C 195.586 151.717,193.881 145.805,189.272 141.383 C 186.763 138.976,185.172 137.916,176.700 133.007 C 169.081 128.593,166.890 126.198,166.908 122.300 C 166.926 118.592,168.784 116.739,172.500 116.724 C 176.914 116.705,179.000 119.240,179.000 124.621 L 179.000 127.000 187.000 127.000 C 194.475 127.000,195.002 126.977,195.029 126.650 C 195.434 121.695,193.263 114.633,190.111 110.655 C 185.842 105.269,178.106 102.487,170.000 103.425 M202.800 141.586 L 202.800 180.000 215.965 180.000 C 224.053 180.000,229.973 179.915,231.315 179.781 C 239.607 178.948,245.671 174.760,247.938 168.300 L 248.500 166.700 248.557 142.200 C 248.618 115.673,248.646 116.466,247.560 113.700 C 245.830 109.294,241.478 105.860,235.740 104.372 C 231.836 103.360,231.737 103.355,216.850 103.260 L 202.800 103.171 202.800 141.586 M270.720 103.550 C 270.614 103.895,254.600 179.764,254.600 179.920 C 254.600 179.964,258.410 180.000,263.067 180.000 L 271.535 180.000 272.896 173.050 C 273.645 169.228,274.300 165.988,274.350 165.850 C 274.462 165.549,287.503 165.481,287.688 165.780 C 287.794 165.951,289.798 179.024,289.799 179.550 C 289.800 179.746,291.734 179.800,298.800 179.800 C 303.750 179.800,307.800 179.764,307.800 179.720 C 307.800 179.570,291.390 103.902,291.281 103.550 C 291.180 103.223,290.514 103.200,281.000 103.200 C 271.486 103.200,270.820 103.223,270.720 103.550 M227.700 117.423 C 229.278 117.859,230.218 119.357,230.830 122.408 C 231.133 123.920,231.299 155.660,231.023 159.371 C 230.586 165.256,229.694 166.053,223.660 165.955 L 220.300 165.900 220.249 141.800 C 220.220 128.545,220.240 117.588,220.292 117.450 C 220.416 117.126,226.543 117.104,227.700 117.423 M283.497 134.316 C 284.651 143.437,285.645 151.192,285.707 151.550 L 285.818 152.200 280.993 152.200 L 276.168 152.200 276.280 151.650 C 276.341 151.347,277.431 143.855,278.703 135.000 C 281.184 117.712,281.210 117.543,281.323 117.657 C 281.365 117.698,282.343 125.195,283.497 134.316 M27.263 205.450 C 27.620 221.208,30.485 237.893,35.412 252.918 C 36.424 256.003,36.444 256.041,36.968 255.941 C 37.261 255.885,44.542 254.685,53.150 253.274 L 68.800 250.710 68.800 242.646 C 68.800 231.418,69.239 229.698,73.077 225.893 C 76.672 222.328,78.698 221.700,86.600 221.700 C 94.785 221.700,97.945 222.825,101.213 226.900 C 103.875 230.219,104.258 231.691,104.354 238.950 C 104.411 243.252,104.494 244.796,104.666 244.786 C 104.795 244.779,106.115 244.576,107.600 244.336 L 110.300 243.898 110.352 232.749 L 110.403 221.600 121.352 221.601 C 127.951 221.601,133.015 221.687,134.100 221.817 C 141.541 222.711,145.463 227.301,145.931 235.664 C 146.057 237.930,146.080 238.024,146.481 237.930 C 146.712 237.876,147.868 237.677,149.050 237.487 L 151.200 237.141 151.203 235.421 C 151.210 232.207,151.993 229.862,153.774 227.722 C 161.227 218.767,181.019 220.061,185.691 229.808 C 186.347 231.178,186.450 231.295,186.953 231.234 C 188.107 231.094,201.641 228.825,201.684 228.764 C 201.710 228.729,202.022 227.260,202.379 225.500 C 202.736 223.740,203.073 222.143,203.128 221.950 C 203.220 221.624,203.768 221.600,210.993 221.600 L 218.760 221.600 219.079 223.050 C 219.254 223.847,219.454 224.793,219.524 225.150 C 219.595 225.518,219.773 225.800,219.933 225.800 C 220.203 225.800,233.220 223.684,234.139 223.490 C 234.493 223.416,234.589 223.236,234.639 222.549 L 234.700 221.700 240.800 221.589 L 246.900 221.478 265.800 218.350 C 283.590 215.405,309.293 211.200,309.504 211.200 C 309.557 211.200,309.600 211.370,309.600 211.578 C 309.600 212.045,312.725 211.375,285.400 216.771 C 272.585 219.302,261.695 221.459,261.200 221.565 C 260.533 221.707,261.658 221.763,265.550 221.779 L 270.800 221.800 270.800 229.121 C 270.800 236.010,270.821 236.435,271.150 236.314 C 271.343 236.244,272.782 235.678,274.350 235.057 L 277.200 233.928 277.200 227.764 L 277.200 221.600 283.695 221.600 L 290.191 221.600 290.245 225.185 L 290.300 228.771 300.400 224.799 C 309.331 221.287,310.528 220.864,310.744 221.143 C 310.878 221.317,310.947 221.524,310.897 221.604 C 310.848 221.684,311.593 221.705,312.554 221.650 C 319.444 221.258,326.300 223.495,329.692 227.244 C 331.796 229.569,332.400 231.499,332.400 235.904 L 332.400 238.788 332.992 239.226 L 333.584 239.663 332.992 240.410 C 332.666 240.821,332.400 241.392,332.400 241.679 C 332.400 242.055,332.296 242.200,332.024 242.200 C 331.765 242.200,329.960 244.419,326.206 249.350 L 320.764 256.500 326.932 256.600 L 333.100 256.700 333.100 262.200 C 333.100 270.009,331.806 272.842,326.768 276.065 C 321.465 279.458,311.953 280.385,305.886 278.102 L 304.621 277.626 288.839 298.263 C 280.159 309.613,264.444 330.148,253.917 343.896 C 243.391 357.644,234.866 368.922,234.973 368.958 C 235.790 369.230,249.107 365.637,256.200 363.230 C 323.715 340.321,371.153 276.095,372.739 205.450 L 372.861 200.000 200.000 200.000 L 27.139 200.000 27.263 205.450 M253.500 223.051 C 251.300 223.497,249.471 223.883,249.437 223.911 C 249.382 223.954,254.989 242.405,255.103 242.556 C 255.126 242.586,255.877 242.325,256.772 241.974 L 258.400 241.337 258.400 231.769 L 258.400 222.200 257.950 222.221 C 257.703 222.232,255.700 222.606,253.500 223.051 M295.250 228.461 L 290.200 230.683 290.200 239.442 C 290.200 244.259,290.268 248.197,290.350 248.193 C 290.433 248.190,291.940 247.175,293.700 245.938 L 296.900 243.689 297.011 238.395 C 297.146 231.987,297.548 230.337,299.646 227.582 C 300.976 225.836,301.418 225.747,295.250 228.461 M227.551 228.181 C 223.838 228.924,220.743 229.590,220.672 229.661 C 220.562 229.771,225.368 252.498,225.762 253.731 C 225.896 254.149,226.035 254.109,230.250 252.451 L 234.600 250.740 234.600 238.770 C 234.600 232.187,234.532 226.807,234.450 226.815 C 234.368 226.823,231.263 227.437,227.551 228.181 M84.900 231.765 C 83.875 232.249,83.040 233.088,82.576 234.100 C 82.050 235.246,81.998 248.400,82.519 248.400 C 82.845 248.400,89.734 247.280,90.550 247.095 L 91.000 246.992 90.995 240.846 L 90.991 234.700 90.445 233.707 C 89.382 231.771,86.800 230.867,84.900 231.765 M167.409 231.715 C 166.021 232.317,164.600 233.858,164.600 234.761 C 164.600 234.858,166.063 234.693,167.850 234.395 C 169.638 234.097,171.538 233.788,172.074 233.710 L 173.048 233.568 172.383 232.882 C 171.038 231.495,169.012 231.020,167.409 231.715 M124.350 232.130 L 123.800 232.227 123.800 236.913 C 123.800 240.180,123.866 241.600,124.019 241.600 C 124.282 241.600,131.297 240.444,131.976 240.288 C 133.252 239.996,132.110 234.515,130.521 233.302 C 129.299 232.371,126.269 231.795,124.350 232.130 M312.266 232.587 C 311.808 232.796,311.322 233.173,311.186 233.426 L 310.940 233.885 311.520 233.510 C 313.657 232.129,313.879 231.855,312.266 232.587 M313.219 234.223 C 311.762 235.336,310.531 236.349,310.483 236.473 C 310.435 236.598,310.420 242.999,310.448 250.697 L 310.500 264.694 319.976 253.497 L 329.452 242.300 324.376 242.200 L 319.300 242.100 319.300 238.794 C 319.300 234.842,319.018 233.995,317.319 232.850 C 316.038 231.986,316.232 231.921,313.219 234.223 M194.400 234.695 C 191.485 235.275,188.583 235.858,187.950 235.989 L 186.800 236.228 186.800 239.114 L 186.800 242.000 180.200 242.000 L 173.600 242.000 173.600 240.405 L 173.600 238.810 172.950 238.931 C 172.593 238.998,170.551 239.401,168.414 239.826 C 166.277 240.252,164.499 240.600,164.464 240.600 C 164.300 240.600,164.425 264.037,164.594 265.073 C 165.139 268.395,167.388 269.871,170.555 268.985 C 173.138 268.261,174.000 266.382,174.000 261.471 L 174.000 258.013 171.650 257.956 L 169.300 257.900 169.246 253.048 L 169.193 248.196 178.246 248.248 L 187.300 248.300 187.400 258.827 L 187.500 269.354 190.556 268.140 C 192.923 267.199,193.633 266.832,193.709 266.513 C 193.971 265.413,200.600 233.907,200.600 233.764 C 200.600 233.493,199.933 233.594,194.400 234.695 M209.341 245.850 C 208.374 252.588,207.587 258.168,207.591 258.250 C 207.596 258.332,209.142 258.400,211.026 258.400 L 214.453 258.400 214.353 257.650 C 214.299 257.238,213.589 251.658,212.777 245.250 C 211.965 238.843,211.255 233.600,211.200 233.600 C 211.145 233.600,210.308 239.113,209.341 245.850 M273.854 237.767 L 270.809 239.100 270.804 250.457 C 270.800 261.216,270.818 261.804,271.150 261.616 C 271.343 261.507,272.760 260.535,274.300 259.455 L 277.100 257.491 277.152 246.945 C 277.180 241.145,277.135 236.408,277.052 236.417 C 276.968 236.427,275.530 237.034,273.854 237.767 M148.024 243.807 C 146.442 244.125,145.126 244.411,145.099 244.443 C 145.071 244.474,144.812 245.006,144.522 245.625 C 143.848 247.063,142.661 248.408,141.174 249.418 C 139.630 250.466,139.625 250.840,141.150 251.513 C 144.518 252.999,145.486 255.786,145.799 264.900 C 146.085 273.214,146.369 275.529,147.295 277.109 C 147.581 277.597,147.800 278.282,147.800 278.688 L 147.800 279.405 140.150 279.352 L 132.500 279.300 132.400 269.900 C 132.289 259.459,132.327 259.745,130.868 258.361 C 129.799 257.346,127.124 256.600,124.555 256.600 L 124.000 256.600 124.000 268.000 L 124.000 279.400 117.200 279.400 L 110.400 279.400 110.400 265.296 L 110.400 251.192 109.950 251.298 C 109.426 251.422,104.574 252.400,104.485 252.400 C 104.452 252.400,104.397 255.888,104.361 260.150 L 104.297 267.900 103.734 269.500 C 101.297 276.422,96.790 279.168,87.579 279.345 C 79.319 279.504,76.775 278.747,72.977 275.000 C 69.800 271.867,68.800 268.966,68.800 262.885 C 68.800 259.587,68.776 259.360,68.441 259.447 C 68.244 259.499,61.728 260.788,53.961 262.313 L 39.839 265.085 40.203 266.007 C 44.593 277.144,53.136 292.147,61.214 302.903 C 65.998 309.273,71.086 315.280,71.581 315.141 C 71.756 315.091,92.150 307.045,116.900 297.261 C 141.650 287.477,162.080 279.400,162.300 279.314 C 162.614 279.191,162.398 279.073,161.300 278.768 C 156.579 277.457,153.214 274.146,151.773 269.397 C 151.326 267.923,151.318 267.713,151.249 255.550 C 151.210 248.757,151.115 243.207,151.039 243.215 C 150.962 243.223,149.606 243.489,148.024 243.807 M257.060 245.096 C 256.070 245.546,256.027 245.597,256.184 246.134 C 256.779 248.169,258.262 252.914,258.324 252.983 C 258.366 253.029,258.400 251.162,258.400 248.833 C 258.400 246.505,258.332 244.605,258.250 244.612 C 258.168 244.618,257.632 244.836,257.060 245.096 M293.550 249.107 L 290.200 251.652 290.200 265.526 L 290.200 279.400 283.700 279.400 L 277.200 279.400 277.200 270.483 C 277.200 265.579,277.124 261.597,277.031 261.633 C 276.938 261.670,275.498 262.735,273.832 264.000 L 270.802 266.300 270.801 272.852 L 270.800 279.405 263.567 279.352 L 256.333 279.300 256.057 278.472 L 255.781 277.644 234.441 293.744 C 222.703 302.600,197.273 321.782,177.928 336.372 L 142.756 362.900 146.528 364.132 C 169.601 371.668,195.070 374.237,219.405 371.484 L 220.589 371.350 251.369 334.825 C 268.299 314.736,286.474 293.176,291.759 286.914 L 301.368 275.528 300.299 274.347 C 299.139 273.065,298.022 270.997,297.466 269.100 C 297.156 268.044,297.101 266.623,297.007 257.230 L 296.900 246.561 293.550 249.107 M247.200 264.367 C 247.200 271.975,247.246 278.200,247.303 278.200 C 247.403 278.200,253.930 273.697,254.265 273.398 C 254.397 273.279,247.533 250.909,247.274 250.617 C 247.233 250.571,247.200 256.758,247.200 264.367 M230.719 256.541 C 228.639 257.451,226.896 258.237,226.845 258.288 C 226.794 258.339,227.753 262.999,228.976 268.644 C 230.199 274.289,231.200 278.975,231.200 279.056 C 231.200 279.138,228.120 279.182,224.355 279.153 L 217.511 279.100 217.067 276.100 C 216.822 274.450,216.471 272.088,216.285 270.850 L 215.948 268.600 211.015 268.600 L 206.082 268.600 205.220 273.050 C 204.747 275.498,204.271 277.928,204.163 278.450 L 203.967 279.400 197.483 279.400 C 193.918 279.400,191.000 279.376,191.000 279.347 C 191.000 279.318,191.270 278.037,191.600 276.500 C 191.930 274.963,192.200 273.602,192.200 273.477 C 192.200 273.349,191.139 273.704,189.812 274.274 L 187.423 275.300 187.362 276.800 L 187.300 278.300 183.803 278.355 L 180.305 278.410 129.503 300.433 C 101.561 312.545,78.629 322.518,78.543 322.595 C 78.457 322.671,79.537 323.812,80.943 325.129 C 94.442 337.780,107.717 346.990,123.835 354.889 C 129.954 357.887,132.143 358.853,132.289 358.619 C 132.343 358.531,157.907 340.648,189.097 318.880 L 245.807 279.300 240.254 279.200 L 234.700 279.100 234.600 266.994 L 234.500 254.887 230.719 256.541 M86.500 255.910 C 84.190 256.389,82.278 256.785,82.250 256.790 C 81.958 256.846,82.258 266.209,82.574 266.900 C 84.125 270.296,88.737 270.486,90.441 267.224 L 91.000 266.154 91.000 260.577 C 91.000 257.510,90.933 255.009,90.850 255.020 C 90.767 255.031,88.810 255.432,86.500 255.910 M315.643 263.198 C 311.411 268.743,311.698 268.180,312.809 268.750 C 315.194 269.975,318.496 268.661,319.216 266.200 C 319.333 265.800,319.395 263.981,319.360 261.953 L 319.300 258.406 315.643 263.198 " stroke="none" fill="#048454" fill-rule="evenodd"></path><path id="path1" d="M189.900 0.125 C 127.994 3.836,73.963 33.154,37.924 82.590 C 8.569 122.858,-4.608 173.639,1.308 223.700 C 14.006 331.140,110.006 408.892,218.100 399.283 C 302.728 391.759,373.689 330.927,394.222 248.300 C 401.155 220.399,401.910 189.915,396.374 161.400 C 379.308 73.491,306.089 8.280,215.700 0.485 C 212.130 0.177,193.393 -0.084,189.900 0.125 M208.300 16.002 C 315.890 21.160,395.921 116.504,382.388 223.400 C 370.001 321.241,282.059 392.169,183.900 383.487 C 79.957 374.293,4.449 280.350,17.613 176.600 C 29.648 81.738,113.119 11.439,208.300 16.002 " stroke="none" fill="#743c04" fill-rule="evenodd"></path><path id="path2" d="M194.200 16.020 C 101.352 18.699,24.740 91.417,16.908 184.300 C 7.832 291.929,92.258 384.024,200.000 384.024 C 307.732 384.024,392.178 291.907,383.092 184.300 C 380.924 158.627,373.066 132.683,360.859 110.900 C 326.694 49.929,263.615 14.017,194.200 16.020 M114.847 132.550 C 114.897 160.294,114.920 161.944,115.259 162.700 C 117.410 167.489,123.846 167.229,126.049 162.265 C 126.245 161.824,126.322 155.298,126.400 132.500 L 126.500 103.300 135.354 103.248 L 144.209 103.196 144.154 133.048 L 144.100 162.900 143.564 164.841 C 140.817 174.784,132.903 180.000,120.562 180.000 C 108.293 180.000,100.239 174.602,97.338 164.435 L 96.900 162.900 96.847 133.050 L 96.794 103.200 105.794 103.200 L 114.794 103.200 114.847 132.550 M177.400 103.509 C 188.021 105.224,194.495 112.977,195.138 124.750 L 195.261 127.000 187.081 126.999 L 178.900 126.998 178.843 124.449 C 178.720 118.983,176.970 116.900,172.500 116.900 C 168.917 116.900,167.232 118.451,167.042 121.927 C 166.802 126.287,168.804 128.353,178.900 134.166 C 192.531 142.014,195.085 145.744,195.085 157.800 C 195.085 172.527,188.212 179.474,173.176 179.945 C 161.068 180.325,153.597 175.675,150.438 165.791 C 149.388 162.506,148.682 156.657,149.080 154.537 L 149.218 153.800 157.609 153.800 C 162.224 153.800,166.011 153.822,166.024 153.850 C 166.037 153.878,166.108 155.655,166.182 157.800 C 166.407 164.339,168.108 166.577,172.689 166.358 C 176.889 166.157,178.689 164.222,178.696 159.896 C 178.704 155.253,176.104 152.458,166.700 147.000 C 153.852 139.543,150.119 133.731,150.836 122.300 C 151.633 109.592,163.424 101.251,177.400 103.509 M233.823 103.761 C 241.981 105.613,246.780 109.559,248.344 115.700 C 248.900 117.886,248.893 165.413,248.335 167.400 C 246.808 172.845,242.555 176.947,236.434 178.878 C 232.951 179.977,232.549 180.000,216.974 180.000 L 202.600 180.000 202.600 141.590 L 202.600 103.181 217.250 103.252 C 231.452 103.322,231.959 103.337,233.823 103.761 M291.400 103.294 C 291.400 103.345,295.005 120.018,299.411 140.344 C 303.817 160.670,307.542 177.863,307.687 178.552 L 307.952 179.804 298.835 179.752 L 289.719 179.700 288.677 172.800 C 288.103 169.005,287.627 165.878,287.617 165.850 C 287.608 165.822,284.640 165.800,281.022 165.800 L 274.444 165.800 273.063 172.850 L 271.682 179.900 263.067 179.952 L 254.451 180.004 254.813 178.252 C 255.012 177.288,258.646 160.053,262.887 139.951 C 267.129 119.849,270.600 103.356,270.600 103.301 C 270.600 103.245,275.280 103.200,281.000 103.200 C 286.720 103.200,291.400 103.242,291.400 103.294 M220.400 141.588 L 220.400 165.800 223.987 165.800 C 231.296 165.800,230.991 166.819,230.994 142.400 C 230.998 116.829,231.195 117.553,224.186 117.438 L 220.400 117.376 220.400 141.588 M278.923 134.400 C 277.619 143.475,276.507 151.148,276.451 151.450 L 276.350 152.000 280.975 152.000 C 283.519 152.000,285.600 151.947,285.600 151.881 C 285.600 151.742,281.416 118.641,281.343 118.200 C 281.315 118.035,280.226 125.325,278.923 134.400 M373.000 202.271 C 373.000 240.165,358.240 280.183,333.193 310.200 C 260.409 397.425,125.680 392.526,59.120 300.233 C 38.916 272.218,27.000 235.876,27.000 202.271 L 27.000 200.000 200.000 200.000 L 373.000 200.000 373.000 202.271 M80.100 222.086 C 74.755 223.286,70.535 227.416,69.300 232.652 C 68.853 234.548,68.863 266.492,69.311 268.400 C 70.238 272.345,73.153 275.943,76.903 277.772 C 79.525 279.050,79.893 279.100,86.700 279.100 L 92.900 279.100 94.500 278.535 C 99.352 276.823,102.593 273.344,103.945 268.400 C 104.485 266.422,104.490 234.605,103.950 232.600 C 102.646 227.760,99.250 224.118,94.500 222.467 C 92.576 221.798,82.562 221.533,80.100 222.086 M110.571 234.440 C 110.532 241.403,110.532 254.322,110.571 263.150 L 110.642 279.200 117.221 279.200 L 123.800 279.200 123.800 267.874 L 123.800 256.548 125.850 256.654 C 128.427 256.787,129.691 257.178,130.852 258.200 C 132.488 259.640,132.480 259.582,132.554 270.052 L 132.619 279.205 140.159 279.152 L 147.700 279.100 147.762 278.668 C 147.795 278.430,147.552 277.755,147.221 277.168 C 146.297 275.529,146.002 273.359,145.798 266.700 C 145.468 255.955,144.595 253.174,141.050 251.579 C 139.420 250.846,139.403 250.484,140.950 249.434 C 144.616 246.945,145.703 244.188,145.695 237.400 C 145.687 229.917,143.850 225.852,139.423 223.526 C 136.359 221.916,136.422 221.922,122.771 221.847 L 110.642 221.780 110.571 234.440 M165.300 222.009 C 158.140 223.119,152.650 227.243,151.600 232.299 C 151.194 234.258,151.433 267.848,151.864 269.300 C 152.974 273.039,155.389 276.002,158.600 277.567 C 165.036 280.704,173.695 279.225,177.045 274.416 L 177.800 273.332 177.800 275.766 L 177.800 278.200 182.500 278.200 L 187.200 278.200 187.200 263.300 L 187.200 248.400 178.300 248.400 L 169.400 248.400 169.400 253.100 L 169.400 257.800 171.674 257.800 L 173.948 257.800 174.072 258.550 C 174.318 260.042,174.210 264.494,173.902 265.531 C 172.802 269.236,168.406 270.659,165.876 268.128 C 164.357 266.610,164.400 267.133,164.400 249.987 L 164.400 234.846 164.959 233.773 C 166.684 230.460,171.342 230.481,173.196 233.809 C 173.661 234.645,173.697 234.918,173.768 238.250 L 173.845 241.800 180.235 241.800 L 186.625 241.800 186.562 236.750 L 186.500 231.700 185.782 230.192 C 182.978 224.299,173.905 220.674,165.300 222.009 M202.149 227.150 C 198.818 242.825,191.200 278.971,191.200 279.104 C 191.200 279.157,194.058 279.200,197.550 279.199 L 203.900 279.199 204.879 274.149 C 205.417 271.372,205.900 268.986,205.951 268.847 C 206.025 268.649,207.157 268.605,211.065 268.647 L 216.085 268.700 216.715 272.900 C 217.061 275.210,217.407 277.528,217.484 278.050 L 217.625 279.000 224.312 279.000 C 229.222 279.000,231.000 278.939,231.000 278.770 C 231.000 278.576,227.286 261.297,225.698 254.100 C 224.424 248.332,219.147 223.965,218.951 222.950 L 218.729 221.800 211.008 221.800 L 203.287 221.800 202.149 227.150 M234.800 250.500 L 234.800 279.200 240.999 279.200 L 247.197 279.200 247.249 264.683 L 247.300 250.166 251.085 262.233 C 253.168 268.870,255.218 275.403,255.642 276.750 L 256.414 279.200 263.507 279.200 L 270.600 279.200 270.600 250.500 L 270.600 221.800 264.501 221.800 L 258.402 221.800 258.351 237.617 L 258.300 253.434 253.537 237.867 C 250.917 229.305,248.738 222.188,248.693 222.050 C 248.631 221.856,247.055 221.800,241.706 221.800 L 234.800 221.800 234.800 250.500 M277.200 250.500 L 277.200 279.200 283.700 279.200 L 290.200 279.200 290.200 250.500 L 290.200 221.800 283.700 221.800 L 277.200 221.800 277.200 250.500 M309.700 222.008 C 302.758 223.087,298.150 227.550,297.204 234.110 C 296.738 237.347,297.026 266.996,297.542 268.827 C 299.513 275.826,304.621 279.048,313.800 279.084 C 322.972 279.120,329.016 276.118,332.060 270.016 L 332.900 268.332 332.964 262.566 L 333.027 256.800 326.327 256.800 L 319.627 256.800 319.563 261.450 L 319.500 266.100 318.932 267.066 C 317.105 270.175,312.218 270.084,310.779 266.914 C 310.170 265.575,310.201 235.137,310.812 233.875 C 312.001 231.418,316.806 231.344,318.466 233.757 C 319.310 234.983,319.400 235.480,319.400 238.913 L 319.400 242.200 325.812 242.200 L 332.224 242.200 332.162 236.850 L 332.100 231.500 331.377 229.986 C 328.574 224.117,318.942 220.572,309.700 222.008 M87.918 231.494 C 89.177 231.868,90.462 233.106,90.888 234.355 C 91.364 235.751,91.358 265.264,90.882 266.662 C 89.813 269.798,85.623 270.695,83.373 268.268 C 82.015 266.804,82.100 267.993,82.100 250.500 C 82.100 235.467,82.118 234.666,82.473 234.000 C 83.661 231.769,85.694 230.834,87.918 231.494 M129.715 232.706 C 132.256 234.004,133.312 238.116,132.120 242.069 C 131.313 244.746,130.128 245.452,126.250 245.567 L 123.600 245.646 123.600 238.803 L 123.600 231.959 126.065 232.029 C 128.342 232.095,128.619 232.146,129.715 232.706 M214.476 257.550 L 214.592 258.400 210.974 258.400 L 207.355 258.400 207.473 257.750 C 207.537 257.393,208.362 251.700,209.307 245.100 C 210.251 238.500,211.076 232.965,211.139 232.800 C 211.203 232.635,211.954 237.945,212.808 244.600 C 213.662 251.255,214.413 257.082,214.476 257.550 " stroke="none" fill="#fbfbfb" fill-rule="evenodd"></path><path id="path3" d="M72.189 67.550 L 71.500 68.300 72.250 67.611 C 72.663 67.232,73.000 66.894,73.000 66.861 C 73.000 66.708,72.831 66.852,72.189 67.550 M327.800 67.700 C 328.173 68.085,328.523 68.400,328.578 68.400 C 328.633 68.400,328.373 68.085,328.000 67.700 C 327.627 67.315,327.277 67.000,327.222 67.000 C 327.167 67.000,327.427 67.315,327.800 67.700 M331.600 71.500 C 331.973 71.885,332.323 72.200,332.378 72.200 C 332.433 72.200,332.173 71.885,331.800 71.500 C 331.427 71.115,331.077 70.800,331.022 70.800 C 330.967 70.800,331.227 71.115,331.600 71.500 M67.989 71.750 L 67.300 72.500 68.050 71.811 C 68.463 71.432,68.800 71.094,68.800 71.061 C 68.800 70.908,68.631 71.052,67.989 71.750 M130.964 103.350 C 133.419 103.382,137.379 103.382,139.764 103.350 C 142.149 103.318,140.140 103.292,135.300 103.292 C 130.460 103.292,128.509 103.318,130.964 103.350 M202.698 141.600 C 202.698 162.775,202.721 171.438,202.750 160.850 C 202.779 150.263,202.779 132.938,202.750 122.350 C 202.721 111.763,202.698 120.425,202.698 141.600 M220.297 141.600 C 220.297 154.965,220.321 160.433,220.350 153.750 C 220.379 147.067,220.379 136.132,220.350 129.450 C 220.321 122.767,220.297 128.235,220.297 141.600 M248.697 141.600 C 248.697 154.305,248.721 159.503,248.750 153.150 C 248.779 146.798,248.779 136.403,248.750 130.050 C 248.721 123.698,248.697 128.895,248.697 141.600 M195.050 125.100 C 195.053 125.540,195.094 125.696,195.141 125.448 C 195.189 125.199,195.187 124.839,195.137 124.648 C 195.087 124.456,195.048 124.660,195.050 125.100 M231.095 142.100 C 231.095 151.010,231.120 154.684,231.150 150.265 C 231.180 145.846,231.180 138.556,231.150 134.065 C 231.120 129.574,231.095 133.190,231.095 142.100 M189.400 141.500 C 189.773 141.885,190.123 142.200,190.178 142.200 C 190.233 142.200,189.973 141.885,189.600 141.500 C 189.227 141.115,188.877 140.800,188.822 140.800 C 188.767 140.800,189.027 141.115,189.400 141.500 M175.800 153.300 C 176.173 153.685,176.523 154.000,176.578 154.000 C 176.633 154.000,176.373 153.685,176.000 153.300 C 175.627 152.915,175.277 152.600,175.222 152.600 C 175.167 152.600,175.427 152.915,175.800 153.300 M153.350 153.950 C 155.688 153.982,159.513 153.982,161.850 153.950 C 164.188 153.918,162.275 153.892,157.600 153.892 C 152.925 153.892,151.013 153.918,153.350 153.950 M195.071 156.700 C 195.070 157.690,195.104 158.120,195.146 157.656 C 195.188 157.192,195.189 156.382,195.147 155.856 C 195.106 155.330,195.072 155.710,195.071 156.700 M166.057 159.700 C 166.059 160.250,166.098 160.451,166.144 160.147 C 166.189 159.843,166.188 159.393,166.141 159.147 C 166.093 158.901,166.056 159.150,166.057 159.700 M195.054 160.000 C 195.054 160.495,195.093 160.697,195.141 160.450 C 195.189 160.203,195.189 159.798,195.141 159.550 C 195.093 159.303,195.054 159.505,195.054 160.000 M277.650 165.750 C 279.493 165.783,282.507 165.783,284.350 165.750 C 286.193 165.717,284.685 165.690,281.000 165.690 C 277.315 165.690,275.808 165.717,277.650 165.750 M101.600 172.663 C 101.600 172.697,101.892 172.990,102.250 173.313 L 102.900 173.900 102.313 173.250 C 101.765 172.644,101.600 172.508,101.600 172.663 M118.352 179.941 C 118.601 179.989,118.961 179.987,119.152 179.937 C 119.344 179.887,119.140 179.848,118.700 179.850 C 118.260 179.853,118.104 179.894,118.352 179.941 M122.250 179.938 C 122.442 179.988,122.758 179.988,122.950 179.938 C 123.142 179.888,122.985 179.846,122.600 179.846 C 122.215 179.846,122.058 179.888,122.250 179.938 M173.352 179.941 C 173.601 179.989,173.961 179.987,174.152 179.937 C 174.344 179.887,174.140 179.848,173.700 179.850 C 173.260 179.853,173.104 179.894,173.352 179.941 M27.074 202.000 C 27.074 203.155,27.107 203.628,27.147 203.050 C 27.188 202.472,27.188 201.528,27.147 200.950 C 27.107 200.373,27.074 200.845,27.074 202.000 M372.874 202.000 C 372.874 203.155,372.907 203.628,372.947 203.050 C 372.988 202.472,372.988 201.528,372.947 200.950 C 372.907 200.373,372.874 200.845,372.874 202.000 M27.250 208.900 C 27.253 209.340,27.294 209.496,27.341 209.248 C 27.389 208.999,27.387 208.639,27.337 208.448 C 27.287 208.256,27.248 208.460,27.250 208.900 M372.650 208.900 C 372.653 209.340,372.694 209.496,372.741 209.248 C 372.789 208.999,372.787 208.639,372.737 208.448 C 372.687 208.256,372.648 208.460,372.650 208.900 M303.100 212.206 C 299.910 212.736,285.825 215.043,271.800 217.334 C 250.670 220.786,246.506 221.517,247.499 221.600 L 248.699 221.700 248.997 222.750 C 249.188 223.423,249.404 223.800,249.597 223.800 C 250.266 223.800,258.305 222.118,258.367 221.965 C 258.403 221.874,258.789 221.800,259.223 221.800 C 259.657 221.800,268.222 220.173,278.256 218.184 C 288.290 216.196,299.245 214.030,302.600 213.373 C 310.145 211.893,309.600 212.033,309.600 211.578 C 309.600 211.100,309.989 211.062,303.100 212.206 M300.400 224.798 L 290.300 228.768 290.239 229.684 C 290.163 230.819,289.570 230.962,295.249 228.481 C 297.917 227.315,300.227 226.310,300.383 226.247 C 300.585 226.165,300.617 226.213,300.495 226.416 C 300.401 226.572,300.865 226.202,301.526 225.593 C 303.447 223.826,306.328 222.515,309.451 221.987 C 310.927 221.737,311.110 221.618,310.744 221.143 C 310.528 220.864,309.331 221.287,300.400 224.798 M132.050 221.738 C 132.243 221.788,132.558 221.788,132.750 221.738 C 132.942 221.688,132.785 221.646,132.400 221.646 C 132.015 221.646,131.858 221.688,132.050 221.738 M311.850 221.738 C 312.043 221.788,312.358 221.788,312.550 221.738 C 312.743 221.688,312.585 221.646,312.200 221.646 C 311.815 221.646,311.658 221.688,311.850 221.738 M314.850 221.738 C 315.043 221.788,315.358 221.788,315.550 221.738 C 315.743 221.688,315.585 221.646,315.200 221.646 C 314.815 221.646,314.658 221.688,314.850 221.738 M234.600 222.587 C 234.600 223.542,235.499 223.297,226.785 224.719 L 219.670 225.880 220.028 227.390 C 220.225 228.220,220.389 229.101,220.393 229.346 C 220.399 229.730,220.462 229.765,220.850 229.601 C 221.097 229.497,224.090 228.867,227.500 228.202 C 230.910 227.538,233.903 226.949,234.150 226.893 L 234.600 226.792 234.600 238.766 L 234.600 250.740 230.250 252.454 C 227.486 253.542,225.910 254.264,225.926 254.434 C 225.941 254.580,226.117 255.514,226.318 256.508 L 226.684 258.316 230.592 256.599 L 234.500 254.883 234.602 266.991 C 234.674 275.456,234.719 270.479,234.752 250.450 C 234.779 234.693,234.755 221.800,234.700 221.800 C 234.645 221.800,234.600 222.154,234.600 222.587 M270.688 230.335 C 270.696 234.974,270.768 238.834,270.846 238.913 C 270.925 238.992,272.387 238.446,274.095 237.699 L 277.200 236.342 277.200 235.171 C 277.200 234.527,277.156 234.000,277.103 234.000 C 277.049 234.000,275.653 234.540,274.000 235.200 C 272.347 235.860,270.952 236.400,270.900 236.400 C 270.848 236.400,270.775 233.138,270.739 229.150 C 270.675 222.154,270.674 222.196,270.688 230.335 M193.900 230.093 C 187.093 231.239,186.505 231.370,186.561 231.720 C 186.594 231.929,186.674 233.029,186.738 234.165 C 186.849 236.141,186.872 236.225,187.277 236.126 C 189.004 235.704,200.271 233.590,200.460 233.653 C 200.618 233.706,200.845 232.991,201.137 231.516 C 201.634 229.008,201.659 228.791,201.450 228.823 C 201.368 228.836,197.970 229.407,193.900 230.093 M123.733 232.133 C 123.562 232.305,123.561 238.640,123.732 242.597 L 123.865 245.658 126.182 245.539 C 128.722 245.408,129.556 245.200,130.574 244.444 C 131.791 243.540,132.944 240.068,131.953 240.294 C 131.284 240.446,124.275 241.600,124.019 241.600 C 123.866 241.600,123.800 240.180,123.800 236.913 L 123.800 232.227 124.350 232.143 L 124.900 232.060 124.383 232.030 C 124.099 232.013,123.807 232.060,123.733 232.133 M313.548 232.217 C 313.355 232.330,313.094 232.358,312.968 232.280 C 312.836 232.198,312.792 232.226,312.866 232.345 C 313.031 232.612,311.456 233.658,311.162 233.477 C 311.032 233.396,310.994 233.428,311.070 233.552 C 311.143 233.670,311.107 233.798,310.991 233.836 C 310.768 233.911,310.413 235.188,310.405 235.945 C 310.401 236.323,310.799 236.085,313.076 234.345 C 314.548 233.220,315.712 232.232,315.664 232.150 C 315.535 231.929,313.957 231.979,313.548 232.217 M151.272 235.200 C 151.272 236.245,151.306 236.673,151.347 236.150 C 151.388 235.628,151.388 234.773,151.347 234.250 C 151.306 233.728,151.272 234.155,151.272 235.200 M168.542 234.267 C 164.097 235.015,164.407 234.731,164.403 238.072 C 164.400 240.637,164.401 240.643,164.850 240.537 C 165.097 240.478,166.965 240.106,169.000 239.709 C 171.035 239.312,172.903 238.943,173.150 238.890 C 174.103 238.683,173.628 233.571,172.660 233.617 C 172.462 233.627,170.609 233.919,168.542 234.267 M91.000 241.187 C 91.000 246.526,90.973 246.981,90.650 247.074 C 90.458 247.129,88.478 247.470,86.250 247.831 L 82.200 248.488 82.200 252.657 C 82.200 256.534,82.225 256.820,82.550 256.726 C 82.743 256.670,84.565 256.299,86.600 255.900 C 88.635 255.501,90.456 255.130,90.647 255.075 C 90.969 254.982,90.997 255.359,91.047 260.338 C 91.076 263.287,91.112 258.882,91.126 250.550 C 91.140 242.218,91.118 235.400,91.076 235.400 C 91.034 235.400,91.000 238.004,91.000 241.187 M148.227 237.611 C 147.087 237.813,146.136 238.006,146.113 238.039 C 146.091 238.073,145.969 239.045,145.843 240.200 C 145.717 241.355,145.489 242.773,145.336 243.350 C 145.183 243.928,145.078 244.400,145.102 244.400 C 145.126 244.400,146.215 244.186,147.522 243.925 C 148.830 243.664,150.192 243.397,150.550 243.330 L 151.200 243.210 151.248 254.955 C 151.294 266.420,151.297 266.493,151.361 258.000 C 151.466 243.896,151.262 237.195,150.727 237.221 C 150.492 237.233,149.367 237.408,148.227 237.611 M332.400 239.894 C 332.400 241.195,332.403 241.196,333.064 240.329 L 333.576 239.658 332.988 239.223 L 332.400 238.788 332.400 239.894 M270.670 250.100 C 270.657 256.150,270.703 262.257,270.773 263.670 L 270.900 266.241 274.041 263.870 L 277.183 261.500 277.191 259.460 L 277.200 257.420 274.050 259.616 L 270.900 261.812 270.798 250.456 L 270.695 239.100 270.670 250.100 M256.709 241.984 C 255.051 242.656,255.052 242.653,255.593 244.280 L 256.020 245.562 257.210 245.048 L 258.400 244.535 258.400 242.967 C 258.400 242.105,258.332 241.405,258.250 241.410 C 258.168 241.416,257.474 241.675,256.709 241.984 M320.100 253.318 C 314.930 259.426,310.616 264.545,310.514 264.692 C 310.209 265.130,310.744 267.055,311.357 267.727 C 311.655 268.055,311.886 268.289,311.868 268.247 C 311.851 268.205,313.534 265.952,315.609 263.241 C 318.887 258.957,319.389 258.206,319.441 257.506 C 319.495 256.771,319.548 256.701,320.050 256.713 C 320.353 256.719,323.388 256.742,326.797 256.762 L 332.993 256.800 333.052 261.950 L 333.111 267.100 333.105 261.900 L 333.100 256.700 326.932 256.600 L 320.764 256.500 325.711 250.000 C 328.432 246.425,330.881 243.207,331.153 242.850 L 331.647 242.200 330.574 242.206 L 329.500 242.211 320.100 253.318 M293.561 245.969 L 290.222 248.300 290.211 249.967 L 290.200 251.635 290.961 251.067 C 291.380 250.755,292.910 249.600,294.361 248.500 L 296.999 246.500 296.999 245.050 C 297.000 244.253,296.978 243.609,296.950 243.619 C 296.923 243.630,295.397 244.687,293.561 245.969 M108.700 244.145 C 107.820 244.286,106.493 244.499,105.750 244.619 L 104.400 244.836 104.400 248.618 C 104.400 250.698,104.468 252.396,104.550 252.391 C 104.969 252.367,110.228 251.239,110.312 251.155 C 110.365 251.101,110.385 249.444,110.355 247.473 L 110.300 243.888 108.700 244.145 M187.290 263.400 C 187.295 271.595,187.327 277.625,187.360 276.800 L 187.420 275.300 189.760 274.303 C 191.047 273.755,192.168 273.328,192.250 273.353 C 192.333 273.379,192.400 273.241,192.400 273.047 C 192.400 272.853,192.669 271.442,192.998 269.912 C 193.326 268.381,193.562 267.096,193.522 267.056 C 193.482 267.015,192.111 267.517,190.475 268.170 L 187.500 269.358 187.390 258.929 C 187.287 249.165,187.281 249.449,187.290 263.400 M53.400 253.214 C 45.535 254.517,38.497 255.685,37.759 255.808 L 36.418 256.033 37.207 258.243 C 38.697 262.420,39.678 264.842,39.916 264.934 C 40.101 265.005,63.014 260.605,67.850 259.570 L 68.800 259.367 68.800 255.083 L 68.800 250.800 68.250 250.822 C 67.948 250.834,61.265 251.910,53.400 253.214 M123.894 268.000 C 123.894 274.325,123.919 276.913,123.950 273.750 C 123.981 270.587,123.981 265.412,123.950 262.250 C 123.919 259.088,123.894 261.675,123.894 268.000 M170.558 257.948 C 171.250 257.987,172.330 257.987,172.958 257.948 C 173.586 257.908,173.020 257.876,171.700 257.876 C 170.380 257.877,169.866 257.909,170.558 257.948 M270.690 272.900 C 270.689 276.530,270.716 278.043,270.750 276.263 C 270.783 274.482,270.783 271.512,270.750 269.663 C 270.717 267.813,270.690 269.270,270.690 272.900 M145.860 268.600 C 145.860 269.205,145.897 269.453,145.943 269.150 C 145.989 268.848,145.989 268.353,145.943 268.050 C 145.897 267.748,145.860 267.995,145.860 268.600 M250.749 275.850 C 248.007 277.749,247.210 278.399,247.206 278.738 C 247.201 279.092,247.066 279.188,246.499 279.238 C 245.877 279.293,132.690 357.970,132.281 358.631 C 132.222 358.726,132.563 358.969,133.037 359.172 C 135.156 360.078,141.819 362.613,142.332 362.708 C 142.837 362.802,144.825 361.361,160.200 349.756 C 169.715 342.573,194.915 323.568,216.200 307.522 C 237.485 291.475,255.098 278.156,255.341 277.923 L 255.782 277.500 255.141 275.450 C 254.788 274.323,254.452 273.400,254.394 273.400 C 254.335 273.400,252.695 274.502,250.749 275.850 M176.442 275.216 C 173.657 278.237,168.698 279.878,164.200 279.266 C 163.349 279.150,162.570 279.136,162.400 279.234 C 162.235 279.328,141.805 287.422,117.000 297.221 C 92.195 307.019,71.773 315.108,71.617 315.195 C 71.359 315.339,75.046 319.473,77.653 321.964 L 78.349 322.629 129.224 300.564 C 179.821 278.621,180.094 278.500,178.956 278.440 L 177.813 278.380 177.756 276.116 L 177.700 273.851 176.442 275.216 M283.969 296.150 C 248.280 338.467,220.633 371.300,220.666 371.327 C 220.765 371.410,228.093 370.334,230.500 369.884 C 232.040 369.596,233.668 369.314,234.117 369.258 C 234.566 369.202,234.933 369.050,234.933 368.922 C 234.933 368.793,240.997 360.771,248.407 351.094 C 255.818 341.417,271.414 321.035,283.065 305.800 C 294.716 290.565,304.327 278.002,304.423 277.882 C 304.559 277.710,301.727 275.598,301.364 275.600 C 301.329 275.601,293.501 284.848,283.969 296.150 M136.350 279.350 C 138.468 279.382,141.933 279.382,144.050 279.350 C 146.167 279.317,144.435 279.291,140.200 279.291 C 135.965 279.291,134.233 279.317,136.350 279.350 M312.350 279.341 C 312.598 279.389,313.003 279.389,313.250 279.341 C 313.498 279.293,313.295 279.254,312.800 279.254 C 312.305 279.254,312.103 279.293,312.350 279.341 M314.750 279.341 C 314.998 279.389,315.403 279.389,315.650 279.341 C 315.898 279.293,315.695 279.254,315.200 279.254 C 314.705 279.254,314.503 279.293,314.750 279.341 M68.100 328.400 C 68.530 328.840,68.926 329.200,68.981 329.200 C 69.036 329.200,68.730 328.840,68.300 328.400 C 67.870 327.960,67.474 327.600,67.419 327.600 C 67.364 327.600,67.670 327.960,68.100 328.400 M331.589 328.550 L 330.900 329.300 331.650 328.611 C 332.348 327.969,332.492 327.800,332.339 327.800 C 332.306 327.800,331.968 328.138,331.589 328.550 M72.000 332.300 C 72.373 332.685,72.723 333.000,72.778 333.000 C 72.833 333.000,72.573 332.685,72.200 332.300 C 71.827 331.915,71.477 331.600,71.422 331.600 C 71.367 331.600,71.627 331.915,72.000 332.300 M327.789 332.350 L 327.100 333.100 327.850 332.411 C 328.263 332.032,328.600 331.694,328.600 331.661 C 328.600 331.508,328.431 331.652,327.789 332.350 M193.950 372.541 C 194.197 372.589,194.603 372.589,194.850 372.541 C 195.097 372.493,194.895 372.454,194.400 372.454 C 193.905 372.454,193.703 372.493,193.950 372.541 M205.150 372.541 C 205.398 372.589,205.803 372.589,206.050 372.541 C 206.298 372.493,206.095 372.454,205.600 372.454 C 205.105 372.454,204.903 372.493,205.150 372.541 " stroke="none" fill="#52ab8b" fill-rule="evenodd"></path><path id="path4" d="M195.857 15.948 C 196.494 15.988,197.484 15.987,198.057 15.947 C 198.631 15.907,198.110 15.874,196.900 15.875 C 195.690 15.875,195.221 15.908,195.857 15.948 M202.057 15.948 C 202.694 15.988,203.684 15.987,204.257 15.947 C 204.831 15.907,204.310 15.874,203.100 15.875 C 201.890 15.875,201.421 15.908,202.057 15.948 M190.352 16.141 C 190.601 16.189,190.961 16.187,191.152 16.137 C 191.344 16.087,191.140 16.048,190.700 16.050 C 190.260 16.053,190.104 16.094,190.352 16.141 M208.952 16.141 C 209.201 16.189,209.561 16.187,209.752 16.137 C 209.944 16.087,209.740 16.048,209.300 16.050 C 208.860 16.053,208.704 16.094,208.952 16.141 M74.887 65.050 L 74.300 65.700 74.950 65.113 C 75.556 64.565,75.692 64.400,75.537 64.400 C 75.503 64.400,75.210 64.692,74.887 65.050 M324.400 64.463 C 324.400 64.497,324.693 64.790,325.050 65.113 L 325.700 65.700 325.113 65.050 C 324.565 64.444,324.400 64.308,324.400 64.463 M70.095 69.650 L 68.700 71.100 70.150 69.705 C 71.497 68.410,71.691 68.200,71.545 68.200 C 71.514 68.200,70.862 68.853,70.095 69.650 M329.700 69.600 C 330.353 70.260,330.932 70.800,330.987 70.800 C 331.042 70.800,330.553 70.260,329.900 69.600 C 329.247 68.940,328.668 68.400,328.613 68.400 C 328.558 68.400,329.047 68.940,329.700 69.600 M144.097 132.500 C 144.097 148.670,144.121 155.255,144.150 147.134 C 144.179 139.013,144.179 125.783,144.150 117.734 C 144.121 109.685,144.097 116.330,144.097 132.500 M126.497 132.200 C 126.497 148.095,126.521 154.598,126.550 146.650 C 126.579 138.703,126.579 125.698,126.550 117.750 C 126.521 109.803,126.497 116.305,126.497 132.200 M156.600 109.300 C 156.114 109.795,155.762 110.200,155.817 110.200 C 155.872 110.200,156.314 109.795,156.800 109.300 C 157.286 108.805,157.638 108.400,157.583 108.400 C 157.528 108.400,157.086 108.805,156.600 109.300 M188.200 108.463 C 188.200 108.497,188.493 108.790,188.850 109.113 L 189.500 109.700 188.913 109.050 C 188.365 108.444,188.200 108.308,188.200 108.463 M172.050 116.738 C 172.243 116.788,172.558 116.788,172.750 116.738 C 172.942 116.688,172.785 116.646,172.400 116.646 C 172.015 116.646,171.858 116.688,172.050 116.738 M221.959 117.349 C 222.872 117.386,224.312 117.386,225.159 117.348 C 226.007 117.311,225.260 117.281,223.500 117.281 C 221.740 117.281,221.047 117.312,221.959 117.349 M166.846 122.400 C 166.846 122.785,166.888 122.942,166.938 122.750 C 166.988 122.558,166.988 122.243,166.938 122.050 C 166.888 121.858,166.846 122.015,166.846 122.400 M178.860 123.600 C 178.860 124.205,178.897 124.453,178.943 124.150 C 178.989 123.847,178.989 123.353,178.943 123.050 C 178.897 122.748,178.860 122.995,178.860 123.600 M278.650 152.149 C 279.943 152.184,282.058 152.184,283.350 152.149 C 284.643 152.115,283.585 152.086,281.000 152.086 C 278.415 152.086,277.358 152.115,278.650 152.149 M149.050 155.100 C 149.053 155.540,149.094 155.696,149.141 155.448 C 149.189 155.199,149.187 154.839,149.137 154.648 C 149.087 154.456,149.048 154.660,149.050 155.100 M166.075 156.700 C 166.075 157.910,166.108 158.379,166.148 157.743 C 166.188 157.106,166.187 156.116,166.147 155.543 C 166.107 154.969,166.074 155.490,166.075 156.700 M149.060 157.800 C 149.060 158.405,149.097 158.653,149.143 158.350 C 149.189 158.048,149.189 157.553,149.143 157.250 C 149.097 156.947,149.060 157.195,149.060 157.800 M221.959 165.949 C 222.872 165.986,224.312 165.986,225.159 165.948 C 226.007 165.911,225.260 165.881,223.500 165.881 C 221.740 165.881,221.047 165.912,221.959 165.949 M171.850 166.538 C 172.043 166.588,172.358 166.588,172.550 166.538 C 172.743 166.488,172.585 166.446,172.200 166.446 C 171.815 166.446,171.658 166.488,171.850 166.538 M155.300 174.200 C 155.842 174.750,156.330 175.200,156.385 175.200 C 156.440 175.200,156.042 174.750,155.500 174.200 C 154.958 173.650,154.470 173.200,154.415 173.200 C 154.360 173.200,154.758 173.650,155.300 174.200 M189.691 174.050 L 188.900 174.900 189.750 174.109 C 190.540 173.374,190.692 173.200,190.541 173.200 C 190.508 173.200,190.125 173.583,189.691 174.050 M244.189 174.350 L 243.500 175.100 244.250 174.411 C 244.948 173.769,245.092 173.600,244.939 173.600 C 244.906 173.600,244.568 173.938,244.189 174.350 M16.257 193.900 C 16.259 194.450,16.298 194.651,16.344 194.347 C 16.389 194.043,16.388 193.593,16.341 193.347 C 16.293 193.101,16.256 193.350,16.257 193.900 M383.657 193.900 C 383.659 194.450,383.698 194.651,383.744 194.347 C 383.789 194.043,383.788 193.593,383.741 193.347 C 383.693 193.101,383.656 193.350,383.657 193.900 M27.062 205.100 C 27.063 205.760,27.100 206.006,27.145 205.646 C 27.189 205.287,27.189 204.747,27.143 204.446 C 27.097 204.146,27.061 204.440,27.062 205.100 M372.862 205.100 C 372.863 205.760,372.900 206.006,372.945 205.646 C 372.989 205.287,372.989 204.747,372.943 204.446 C 372.897 204.146,372.861 204.440,372.862 205.100 M16.257 206.100 C 16.259 206.650,16.298 206.851,16.344 206.547 C 16.389 206.243,16.388 205.793,16.341 205.547 C 16.293 205.301,16.256 205.550,16.257 206.100 M383.657 206.100 C 383.659 206.650,383.698 206.851,383.744 206.547 C 383.789 206.243,383.788 205.793,383.741 205.547 C 383.693 205.301,383.656 205.550,383.657 206.100 M84.550 221.749 C 85.678 221.785,87.523 221.785,88.650 221.749 C 89.778 221.714,88.855 221.684,86.600 221.684 C 84.345 221.684,83.423 221.714,84.550 221.749 M110.492 221.850 C 110.439 221.988,110.420 227.005,110.450 233.000 L 110.504 243.900 110.552 232.852 L 110.600 221.804 121.250 221.750 L 131.900 221.696 121.244 221.648 C 112.867 221.610,110.567 221.653,110.492 221.850 M168.653 221.744 C 168.957 221.789,169.407 221.788,169.653 221.741 C 169.899 221.693,169.650 221.656,169.100 221.657 C 168.550 221.659,168.349 221.698,168.653 221.744 M207.150 221.750 C 209.268 221.782,212.732 221.782,214.850 221.750 C 216.968 221.717,215.235 221.691,211.000 221.691 C 206.765 221.691,205.032 221.717,207.150 221.750 M237.200 221.742 C 243.534 221.883,248.754 221.887,248.669 221.750 C 248.618 221.668,245.454 221.620,241.638 221.643 C 237.822 221.667,235.825 221.712,237.200 221.742 M280.463 221.750 C 282.312 221.783,285.282 221.783,287.063 221.750 C 288.843 221.716,287.330 221.689,283.700 221.690 C 280.070 221.690,278.613 221.717,280.463 221.750 M313.253 221.744 C 313.557 221.789,314.007 221.788,314.253 221.741 C 314.499 221.693,314.250 221.656,313.700 221.657 C 313.150 221.659,312.949 221.698,313.253 221.744 M183.400 226.900 C 183.773 227.285,184.123 227.600,184.178 227.600 C 184.233 227.600,183.973 227.285,183.600 226.900 C 183.227 226.515,182.877 226.200,182.822 226.200 C 182.767 226.200,183.027 226.515,183.400 226.900 M328.600 226.263 C 328.600 226.297,328.893 226.590,329.250 226.913 L 329.900 227.500 329.313 226.850 C 328.765 226.244,328.600 226.108,328.600 226.263 M86.250 231.338 C 86.442 231.388,86.758 231.388,86.950 231.338 C 87.142 231.288,86.985 231.246,86.600 231.246 C 86.215 231.246,86.058 231.288,86.250 231.338 M186.685 236.900 C 186.685 239.210,186.714 240.128,186.749 238.939 C 186.785 237.751,186.785 235.861,186.749 234.739 C 186.713 233.618,186.684 234.590,186.685 236.900 M332.286 237.600 C 332.286 240.185,332.315 241.243,332.349 239.950 C 332.384 238.657,332.384 236.543,332.349 235.250 C 332.315 233.957,332.286 235.015,332.286 237.600 M68.895 250.500 C 68.895 259.190,68.920 262.716,68.950 258.335 C 68.980 253.954,68.980 246.844,68.950 242.535 C 68.920 238.226,68.895 241.810,68.895 250.500 M82.095 250.500 C 82.095 258.970,82.120 262.406,82.150 258.135 C 82.180 253.865,82.180 246.935,82.150 242.735 C 82.120 238.536,82.095 242.030,82.095 250.500 M145.876 237.800 C 145.876 239.065,145.908 239.582,145.948 238.950 C 145.987 238.318,145.987 237.282,145.948 236.650 C 145.908 236.018,145.876 236.535,145.876 237.800 M173.692 238.750 L 173.700 241.900 180.100 241.904 L 186.500 241.908 180.155 241.851 L 173.810 241.794 173.747 238.697 L 173.684 235.600 173.692 238.750 M270.667 237.800 C 270.667 238.625,270.703 238.963,270.746 238.550 C 270.789 238.138,270.789 237.463,270.746 237.050 C 270.703 236.638,270.667 236.975,270.667 237.800 M151.281 240.100 C 151.281 241.860,151.312 242.553,151.349 241.641 C 151.386 240.728,151.386 239.288,151.348 238.441 C 151.311 237.593,151.281 238.340,151.281 240.100 M132.467 238.800 C 132.467 239.625,132.503 239.963,132.546 239.550 C 132.589 239.138,132.589 238.463,132.546 238.050 C 132.503 237.638,132.467 237.975,132.467 238.800 M123.674 243.600 C 123.674 244.755,123.707 245.228,123.747 244.650 C 123.788 244.072,123.788 243.128,123.747 242.550 C 123.707 241.972,123.674 242.445,123.674 243.600 M91.084 251.000 C 91.084 253.255,91.114 254.178,91.149 253.050 C 91.185 251.923,91.185 250.078,91.149 248.950 C 91.114 247.822,91.084 248.745,91.084 251.000 M142.589 248.150 L 141.900 248.900 142.650 248.211 C 143.348 247.569,143.492 247.400,143.339 247.400 C 143.306 247.400,142.968 247.738,142.589 248.150 M169.290 248.454 C 169.236 248.594,169.218 250.777,169.250 253.304 L 169.308 257.900 169.354 253.152 L 169.400 248.404 178.350 248.350 L 187.300 248.296 178.344 248.248 C 171.247 248.210,169.367 248.253,169.290 248.454 M110.498 265.250 L 110.500 279.300 117.100 279.304 L 123.700 279.308 117.151 279.251 L 110.603 279.195 110.549 265.197 L 110.496 251.200 110.498 265.250 M319.490 256.855 C 319.436 256.995,319.418 259.043,319.450 261.405 L 319.508 265.700 319.554 261.263 L 319.600 256.827 320.150 256.743 L 320.700 256.660 320.144 256.630 C 319.838 256.613,319.543 256.715,319.490 256.855 M174.080 261.800 C 174.080 263.505,174.111 264.203,174.149 263.350 C 174.186 262.498,174.186 261.103,174.149 260.250 C 174.111 259.397,174.080 260.095,174.080 261.800 M132.492 270.400 C 132.492 275.295,132.518 277.298,132.550 274.850 C 132.582 272.403,132.582 268.398,132.550 265.950 C 132.518 263.502,132.492 265.505,132.492 270.400 M145.646 262.400 C 145.646 262.785,145.688 262.943,145.738 262.750 C 145.788 262.558,145.788 262.243,145.738 262.050 C 145.688 261.858,145.646 262.015,145.646 262.400 M270.676 264.100 C 270.677 265.420,270.709 265.934,270.748 265.242 C 270.787 264.550,270.787 263.470,270.748 262.842 C 270.708 262.214,270.676 262.780,270.676 264.100 M145.846 270.200 C 145.846 270.585,145.888 270.743,145.938 270.550 C 145.988 270.358,145.988 270.043,145.938 269.850 C 145.888 269.657,145.846 269.815,145.846 270.200 M187.279 272.400 C 187.279 273.995,187.311 274.647,187.349 273.850 C 187.386 273.053,187.386 271.748,187.349 270.950 C 187.311 270.153,187.279 270.805,187.279 272.400 M300.792 274.850 C 301.620 275.733,301.800 275.892,301.800 275.742 C 301.800 275.710,301.373 275.282,300.850 274.792 L 299.900 273.900 300.792 274.850 M155.200 275.300 C 155.573 275.685,155.923 276.000,155.978 276.000 C 156.033 276.000,155.773 275.685,155.400 275.300 C 155.027 274.915,154.677 274.600,154.622 274.600 C 154.567 274.600,154.827 274.915,155.200 275.300 M180.161 278.349 C 181.515 278.384,183.675 278.384,184.961 278.349 C 186.248 278.314,185.140 278.286,182.500 278.286 C 179.860 278.286,178.808 278.315,180.161 278.349 M224.300 279.000 L 217.500 279.108 224.350 279.154 C 228.814 279.184,231.200 279.130,231.200 279.000 C 231.200 278.890,231.178 278.821,231.150 278.846 C 231.123 278.871,228.040 278.941,224.300 279.000 M84.650 279.349 C 85.723 279.385,87.478 279.385,88.550 279.349 C 89.623 279.313,88.745 279.284,86.600 279.284 C 84.455 279.284,83.578 279.313,84.650 279.349 M165.155 279.347 C 165.626 279.389,166.346 279.388,166.755 279.345 C 167.165 279.302,166.780 279.268,165.900 279.269 C 165.020 279.269,164.685 279.304,165.155 279.347 M194.363 279.350 C 196.157 279.383,199.037 279.383,200.763 279.350 C 202.488 279.316,201.020 279.289,197.500 279.289 C 193.980 279.289,192.568 279.317,194.363 279.350 M259.963 279.350 C 261.978 279.382,265.218 279.382,267.163 279.350 C 269.108 279.317,267.460 279.290,263.500 279.290 C 259.540 279.290,257.948 279.317,259.963 279.350 M280.463 279.350 C 282.312 279.383,285.282 279.383,287.063 279.350 C 288.843 279.316,287.330 279.289,283.700 279.290 C 280.070 279.290,278.613 279.317,280.463 279.350 M327.087 317.050 L 326.500 317.700 327.150 317.113 C 327.756 316.565,327.892 316.400,327.737 316.400 C 327.703 316.400,327.410 316.693,327.087 317.050 M73.300 317.600 C 73.730 318.040,74.126 318.400,74.181 318.400 C 74.236 318.400,73.930 318.040,73.500 317.600 C 73.070 317.160,72.674 316.800,72.619 316.800 C 72.564 316.800,72.870 317.160,73.300 317.600 M322.400 321.900 C 321.581 322.725,320.955 323.400,321.010 323.400 C 321.065 323.400,321.781 322.725,322.600 321.900 C 323.419 321.075,324.045 320.400,323.990 320.400 C 323.935 320.400,323.219 321.075,322.400 321.900 M334.287 325.650 L 333.700 326.300 334.350 325.713 C 334.956 325.165,335.092 325.000,334.937 325.000 C 334.903 325.000,334.610 325.293,334.287 325.650 M81.800 326.063 C 81.800 326.097,82.093 326.390,82.450 326.713 L 83.100 327.300 82.513 326.650 C 81.965 326.044,81.800 325.908,81.800 326.063 M317.487 326.650 L 316.900 327.300 317.550 326.713 C 318.156 326.165,318.292 326.000,318.137 326.000 C 318.103 326.000,317.810 326.293,317.487 326.650 M70.100 330.400 C 70.753 331.060,71.332 331.600,71.387 331.600 C 71.442 331.600,70.953 331.060,70.300 330.400 C 69.647 329.740,69.068 329.200,69.013 329.200 C 68.958 329.200,69.447 329.740,70.100 330.400 M329.694 330.450 L 328.500 331.700 329.750 330.506 C 330.911 329.397,331.092 329.200,330.944 329.200 C 330.913 329.200,330.350 329.763,329.694 330.450 M74.400 334.463 C 74.400 334.497,74.692 334.790,75.050 335.113 L 75.700 335.700 75.113 335.050 C 74.565 334.444,74.400 334.308,74.400 334.463 M192.350 372.541 C 192.597 372.589,193.003 372.589,193.250 372.541 C 193.498 372.493,193.295 372.454,192.800 372.454 C 192.305 372.454,192.103 372.493,192.350 372.541 M206.750 372.541 C 206.998 372.589,207.403 372.589,207.650 372.541 C 207.898 372.493,207.695 372.454,207.200 372.454 C 206.705 372.454,206.503 372.493,206.750 372.541 M190.352 383.941 C 190.601 383.989,190.961 383.987,191.152 383.937 C 191.344 383.887,191.140 383.848,190.700 383.850 C 190.260 383.853,190.104 383.894,190.352 383.941 M208.952 383.941 C 209.201 383.989,209.561 383.987,209.752 383.937 C 209.944 383.887,209.740 383.848,209.300 383.850 C 208.860 383.853,208.704 383.894,208.952 383.941 M195.950 384.147 C 196.528 384.188,197.472 384.188,198.050 384.147 C 198.628 384.107,198.155 384.074,197.000 384.074 C 195.845 384.074,195.373 384.107,195.950 384.147 M201.950 384.147 C 202.528 384.188,203.472 384.188,204.050 384.147 C 204.628 384.107,204.155 384.074,203.000 384.074 C 201.845 384.074,201.373 384.107,201.950 384.147 " stroke="none" fill="#99cdbc" fill-rule="evenodd"></path></g></svg>